<?xml version="1.0" standalone="no"?><svg xmlns="http://www.w3.org/2000/svg" viewBox="0 0 1440 320"><path fill="#e7008a" fill-opacity="1" d="M0,0L24,16C48,32,96,64,144,80C192,96,240,96,288,80C336,64,384,32,432,48C480,64,528,128,576,144C624,160,672,128,720,133.3C768,139,816,181,864,197.3C912,213,960,203,1008,208C1056,213,1104,235,1152,245.3C1200,256,1248,256,1296,250.7C1344,245,1392,235,1416,229.3L1440,224L1440,0L1416,0C1392,0,1344,0,1296,0C1248,0,1200,0,1152,0C1104,0,1056,0,1008,0C960,0,912,0,864,0C816,0,768,0,720,0C672,0,624,0,576,0C528,0,480,0,432,0C384,0,336,0,288,0C240,0,192,0,144,0C96,0,48,0,24,0L0,0Z"></path></svg>